<svg xmlns="http://www.w3.org/2000/svg" viewBox="0 0 500 500"><g id="freepik--Floor--inject-182"><path id="freepik--floor--inject-182" d="M87.86,452.92c-89.55-51.7-89.55-135.52,0-187.22s234.73-51.7,324.28,0,89.55,135.52,0,187.22S177.41,504.62,87.86,452.92Z" style="fill:#f5f5f5"></path></g><g id="freepik--Shadows--inject-182"><path id="freepik--Shadow--inject-182" d="M367.24,340.52c11.69,6.83,11.69,17.89,0,24.72s-30.64,6.82-42.33,0-11.69-17.89,0-24.72S355.55,333.7,367.24,340.52Z" style="fill:#e0e0e0"></path><ellipse id="freepik--shadow--inject-182" cx="411.13" cy="420.16" rx="68.97" ry="39.82" style="fill:#e0e0e0"></ellipse><ellipse id="freepik--shadow--inject-182" cx="207.46" cy="392.25" rx="105.58" ry="60.96" style="fill:#e0e0e0"></ellipse><path id="freepik--shadow--inject-182" d="M174.7,281.86,11.51,376.13a1.42,1.42,0,0,0,0,2.68l47,27.08a5.13,5.13,0,0,0,4.64,0l163.18-94.28c1.28-.73,1.28-1.93,0-2.67l-47-27.08A5.11,5.11,0,0,0,174.7,281.86Z" style="fill:#e0e0e0"></path></g><g id="freepik--Plant--inject-182"><g id="freepik--plant--inject-182"><g id="freepik--Pot--inject-182"><g id="freepik--pot--inject-182"><path d="M326.67,354.56c-10.31-10.64-16.37-39.2-6.31-47.64h51.16c10.05,8.44,4,37-6.3,47.63a18.08,18.08,0,0,1-2.59,2.27,13.15,13.15,0,0,1-1.34.86c-8.48,5-22.23,5-30.71,0h0a15.13,15.13,0,0,1-1.34-.86A18.48,18.48,0,0,1,326.67,354.56Z" style="fill:#ebebeb"></path><path d="M367.08,303.52c11.67,6.82,11.67,17.87,0,24.69s-30.6,6.81-42.28,0-11.67-17.87,0-24.68S355.4,296.71,367.08,303.52Z" style="fill:#fafafa"></path><path d="M361.46,306.8c8.57,5,8.57,13.12,0,18.13s-22.47,5-31,0-8.58-13.12,0-18.13S352.89,301.8,361.46,306.8Z" style="fill:#e0e0e0"></path><path d="M330.42,315.4c8.57-5,22.47-5,31,0a14.42,14.42,0,0,1,5.14,4.77,14.4,14.4,0,0,1-5.14,4.76c-8.57,5-22.47,5-31,0a14.4,14.4,0,0,1-5.14-4.76A14.42,14.42,0,0,1,330.42,315.4Z" style="fill:#f5f5f5"></path></g><g id="freepik--Plants--inject-182"><path d="M364.62,243,349.4,255.65l14.83-7.25A41.4,41.4,0,0,1,362,262.65a91.12,91.12,0,0,0-11.48,8.53l11.38-4.8s1,7.56-1.93,19.18c-.76,3-4,8.89-6.08,13.26a49,49,0,0,1-3.2,5.83c-.07.12-.15.24-.23.36q-4-2.16-8.28-4.19c-1.94-3.84-4.56-13.38-5.61-21.21-4-30,18.37-47.74,36.52-53.93C373,225.68,366.94,233.69,364.62,243Z" style="fill:#ebebeb"></path><path d="M364.62,243,349.4,255.65l14.83-7.25A41.4,41.4,0,0,1,362,262.65a91.12,91.12,0,0,0-11.48,8.53l11.38-4.8s1,7.56-1.93,19.18c-.76,3-4,8.89-6.08,13.26a49,49,0,0,1-3.2,5.83c-.07.12-.15.24-.23.36q-4-2.16-8.28-4.19c-1.94-3.84-4.56-13.38-5.61-21.21-4-30,18.37-47.74,36.52-53.93C373,225.68,366.94,233.69,364.62,243Z" style="fill:#ebebeb;opacity:0.05"></path><path d="M351.69,244.56c-3.09,3.25-4.85,7.48-6.17,11.7a61.27,61.27,0,0,0-2.46,13.07,56.39,56.39,0,0,0,3.87,26h0a.44.44,0,0,1-.24.57.43.43,0,0,1-.56-.24h0a57,57,0,0,1-3.49-26.41,61.57,61.57,0,0,1,2.68-13.1C346.71,252,348.55,247.76,351.69,244.56Z" style="fill:#fff"></path><path d="M292.24,253.34l0,0c.37.53,6.44,9.1,15.16,25.52l16.43,4.05-12.46,1.14,5.73,11,16.11,4.74-13,1s2.52,12.79,11.25,18.75c4.82,3.29,7,3.54,8.89,2.62,2.31-1.13,3.65-4.63,5-9.9s.36-16.23-3.81-27.14A33,33,0,0,0,337,277C326,262.51,303.58,254.11,292.24,253.34Z" style="fill:#e0e0e0"></path><path d="M309.22,260.23c8.3,4.49,16,10.34,21.84,17.91a45.92,45.92,0,0,1,7,12.43,43.43,43.43,0,0,1,2.49,14,0,0,0,0,1-.05.05,0,0,0,0,1,0,0,55.66,55.66,0,0,0-3.27-13.67,51.13,51.13,0,0,0-6.68-12.3c-5.61-7.56-13.14-13.57-21.3-18.28a.06.06,0,0,1,0-.07A0,0,0,0,1,309.22,260.23Z" style="fill:#fff"></path><path d="M402.23,255h0a40.06,40.06,0,0,0-5,.22,79.66,79.66,0,0,0-19,4.62c-2.27.84-4.55,1.8-6.78,2.87-1.12.53-2.23,1.09-3.32,1.68a55.16,55.16,0,0,0-14.53,11,34.93,34.93,0,0,0-5,7c-.17.33-.36.65-.53,1h0c-.42.87-.8,1.72-1.16,2.56-4.19,9.48-4.55,16.05-4.28,23.34.2,5.66,2.13,12.13,3.23,13.19a2.8,2.8,0,0,0,.49.36c1.61,1,4.18.43,9-2.25,9.61-5.37,13.38-19,13.38-19l-13.35-2.27,17.14-3.42,7-10.86-12.81-2.33L384.12,280c10.56-16.21,17.65-24.53,18.09-25,0,0,0,0,0,0Z" style="fill:#f0f0f0"></path><path d="M397.27,255.2a79.66,79.66,0,0,0-19,4.62c-2.27.84-4.55,1.8-6.78,2.87-1.12.53-2.23,1.09-3.32,1.68a55.16,55.16,0,0,0-14.53,11,34.93,34.93,0,0,0-5,7c-.17.33-.36.65-.53,1h0c-.42.87-.8,1.72-1.16,2.56-4.19,9.48-4.55,16.05-4.28,23.34.2,5.66,2.13,12.13,3.23,13.19a2.8,2.8,0,0,0,.49.36,2.87,2.87,0,0,0,1.06.39c-1.19-8.77,3.13-31,9.66-40.15,6.79-9.51,22.91-23.31,45.07-28.07l0,0A41.38,41.38,0,0,0,397.27,255.2Z" style="fill:#e6e6e6"></path><path d="M347.42,323.22a75.6,75.6,0,0,1,1.26-19.39,62.9,62.9,0,0,1,6.43-18.39c3.29-5.72,8-10.4,13-14.54a72.49,72.49,0,0,1,16.7-10s.06,0,.08,0a0,0,0,0,1,0,.06,96,96,0,0,0-16.06,10.76,69.68,69.68,0,0,0-7.06,6.57,42.22,42.22,0,0,0-5.9,7.57,61.86,61.86,0,0,0-6.65,18.06,75.18,75.18,0,0,0-1.69,19.28,0,0,0,0,1,0,0A.05.05,0,0,1,347.42,323.22Z" style="fill:#fff"></path></g></g></g></g><g id="freepik--Heart--inject-182"><g id="freepik--heart--inject-182"><path d="M148.4,134c-1.19-7.92-8.86-14.12-17.45-14.12a15.87,15.87,0,0,0-5.58,1l-2.89-15.29s-4.32-3.82-16.54-.76-13.48,7.29-13.48,7.29l11.45,66.5-24.5,2.28c-7.9,6.24-2.7,22,.58,23.42l29.17-2,4.16,21.12,29.93-6.49-7.82-55.84c3.43-4.33,11.74-17.16,11.66-19.11A12.76,12.76,0,0,0,148.4,134Z" style="fill:#FF6060"></path><path d="M148.4,134c-1.19-7.92-8.86-14.12-17.45-14.12a15.87,15.87,0,0,0-5.58,1l-2.89-15.29s-4.32-3.82-16.54-.76-13.48,7.29-13.48,7.29l11.45,66.5-24.5,2.28c-7.9,6.24-2.7,22,.58,23.42l29.17-2,4.16,21.12,29.93-6.49-7.82-55.84c3.43-4.33,11.74-17.16,11.66-19.11A12.76,12.76,0,0,0,148.4,134Z" style="opacity:0.15"></path><path d="M146.82,142.8c-.66,1.48-2.9,4.59-10.27,5.92-9.85,1.79-16.41-6.54-16.41-6.54s-.83,3-5.38,9.87-7,6.07-8,3.79-1.89-9.09-4.92-25.58-2.09-21.4,4.89-25.6c-.28.07-.53.11-.82.19-12.21,3.05-13.48,7.29-13.48,7.29l11.45,66.5a44.33,44.33,0,0,1,7.9.39,18.72,18.72,0,0,1,7.48,3.08c2.25,1.56,4.57,3.56,4.48,6.32-.19,6.07-12.82,8.64-25.77,9.71s-19.4,1.82-22-1c1,3.7,2.61,6.64,3.94,7.23l29.17-2,4.16,21.12,29.93-6.49-7.82-55.84c2.88-3.63,9.18-13.24,11.1-17.4Z" style="opacity:0.1"></path><path d="M134.4,149.08c-8.59,0-16.25-6.21-17.45-14.12a12.66,12.66,0,0,1,2.88-10.27,14.55,14.55,0,0,1,11.12-4.8c8.59,0,16.26,6.2,17.45,14.12a12.6,12.6,0,0,1-2.88,10.26A14.52,14.52,0,0,1,134.4,149.08Z" style="fill:#FF6060"></path><ellipse cx="132.68" cy="134.48" rx="10.99" ry="13.07" transform="translate(-46.26 195.07) rotate(-64.09)" style="fill:#FF6060"></ellipse><ellipse cx="132.68" cy="134.48" rx="10.99" ry="13.07" transform="translate(-46.26 195.07) rotate(-64.09)" style="opacity:0.30000000000000004"></ellipse><path d="M140.59,144.28a.76.76,0,0,0,0-.15c-1-6.31-7.36-11.42-14.31-11.42a12,12,0,0,0-6.19,1.62.76.76,0,0,0,0,.15c1,6.31,7.36,11.42,14.31,11.42A12,12,0,0,0,140.59,144.28Z" style="opacity:0.30000000000000004"></path><path d="M107.29,148.72a72.8,72.8,0,0,0,5.94-9.93,75.1,75.1,0,0,0,4.49-10.66c-2,3.32-3.76,6.73-5.51,10.15S108.79,145.15,107.29,148.72Zm20.6,20.71c-2.4,2.86-4.78,5.74-7,8.8a71.29,71.29,0,0,0,7.86-8.07,75.31,75.31,0,0,0,6.67-9.07C132.76,163.76,130.32,166.58,127.89,169.43Z" style="fill:#FF6060"></path><path d="M107.29,148.72a72.8,72.8,0,0,0,5.94-9.93,75.1,75.1,0,0,0,4.49-10.66c-2,3.32-3.76,6.73-5.51,10.15S108.79,145.15,107.29,148.72Zm20.6,20.71c-2.4,2.86-4.78,5.74-7,8.8a71.29,71.29,0,0,0,7.86-8.07,75.31,75.31,0,0,0,6.67-9.07C132.76,163.76,130.32,166.58,127.89,169.43Z" style="opacity:0.5"></path><g style="opacity:0.1"><path d="M146.82,142.8a3.12,3.12,0,0,0,.27-.82Z"></path></g><path d="M138.81,177.16A96,96,0,0,1,160.48,136c9.38-10.27,13.09-11.18,12.8-13.93s-3.71-27.94-3.71-27.94,2-2.59,8.56-3.56,8.56,1,8.56,1l4.21,29.91a1,1,0,0,0,.54.75h0a1,1,0,0,0,1.43-.91l-.19-8s1.14-1.89,6.56-2.35,7.42,3.32,7.42,3.32l1.43,17.22s9.53,9.48,12,22.35v86.37H133.24S130.88,208.66,138.81,177.16Z" style="fill:#FF6060"></path><path d="M138.81,177.16A96,96,0,0,1,160.48,136c9.38-10.27,13.09-11.18,12.8-13.93s-3.71-27.94-3.71-27.94,2-2.59,8.56-3.56,8.56,1,8.56,1l4.21,29.91a1,1,0,0,0,.54.75h0a1,1,0,0,0,1.43-.91l-.19-8s1.14-1.89,6.56-2.35,7.42,3.32,7.42,3.32l1.43,17.22s9.53,9.48,12,22.35v86.37H133.24S130.88,208.66,138.81,177.16Z" style="fill:#fff;opacity:0.1"></path><path d="M167.13,191.23c-6.49,13.84-14.3,9.2-18.58,4.26-7.8-9,2.89-46.41,14.2-60.79l.07-1.18c-.74.77-1.51,1.58-2.34,2.49a96,96,0,0,0-21.67,41.15c-7.93,31.5-5.57,63.06-5.57,63.06h86.83V153.85C189.55,145.87,173.62,177.39,167.13,191.23Z" style="opacity:0.1"></path><path d="M169.26,200.21s-9.36,20.13-20.71,11.21-11-23.77-8.12-40q-.92,2.9-1.62,5.71c-7.93,31.5-5.57,63.06-5.57,63.06h36Z" style="opacity:0.1"></path><path d="M178.13,90.58c-6.56,1-8.56,3.56-8.56,3.56s3.43,25.18,3.71,27.94c.14,1.33-.67,2.24-2.58,4,4.51-3.9,7.26-4.14,6.81-7.45-.48-3.53-1.45-9.62-2.41-16.37S173.9,91.59,178.13,90.58Z" style="opacity:0.1"></path><path d="M193.46,123.28c1.88.83,3,1.38,4.19,2s-1.05-2.43-1.1-6.29c0-2.29-.07-5.41-.09-7.59-3,.72-3.78,1.92-3.78,1.92l.19,8a1,1,0,0,1-2,.16C191.09,122.82,191.58,122.45,193.46,123.28Z" style="opacity:0.1"></path><path d="M272,157.47c-8.73,2.18-26.5.55-37.49-2s-34.26-5.16-50.1,18.76-22.62,42-30.7,60.11-33.93,46-44.6,66.29-13.25,53.29,18.1,77.85S187,411.74,198,415.94s44.92,18.1,64,4.85,40.72-41,36.52-95-26.62-72.16-33-79.07c-12.28-13.36-40.72-24.35-40.72-37.28s8.41-19.71,18.75-19.06,17.74-.13,24.52-1.75c3.28-1.89,6.73-5.68,8.51-12.24C278.87,168.07,277.19,156.83,272,157.47Z" style="fill:#FF6060"></path><path d="M272,157.47c-8.73,2.18-26.5.55-37.49-2s-34.26-5.16-50.1,18.76-22.62,42-30.7,60.11-33.93,46-44.6,66.29-13.25,53.29,18.1,77.85S187,411.74,198,415.94s44.92,18.1,64,4.85,40.72-41,36.52-95-26.62-72.16-33-79.07c-12.28-13.36-40.72-24.35-40.72-37.28s8.41-19.71,18.75-19.06,17.74-.13,24.52-1.75c3.28-1.89,6.73-5.68,8.51-12.24C278.87,168.07,277.19,156.83,272,157.47Z" style="fill:#fff;opacity:0.25"></path><path d="M292,330.89c-2.11-2.53-2.9-5.87-4.76-8.58-2.19-3.19-5.76-3.55-9-5.05-3.07-1.4-5.48-3.94-8.21-5.86a15.9,15.9,0,0,0-9.83-3.08c-2.16,0-4.71.43-6.68-.62a15,15,0,0,1-4.71-4.73c-1.91-2.77-4.07-6.19-4.48-9.55q-.76-6.27-1.13-12.57c-.1-1.86-1-7.77,2.06-7.71,2.54,0,3.66,3.62,4.49,5.45,1,2.25,2.11,4.45,4.23,5.84s5.34,2.27,5.82,5.24c0,.15.14,0,.13-.09-.24-2.26-2.09-3.63-3.89-4.75a12.48,12.48,0,0,1-3.26-2.56,13.1,13.1,0,0,1-1.82-3.45,25.08,25.08,0,0,0-3-6.14c-1.46-2-3.32-5.51-2.62-8.05.83-3,1.85-5.49,1.61-8.74-.16-2-3.73-2.23-4.87-1.16-2.1,2-2.82,5-4,7.58-2,4.32-4.88,8.17-9.81,5.33-2.3-1.33-4.29-3.13-6.83-4a13.74,13.74,0,0,0-7.39-.1c-3.1.64-6.71,1.23-9.27-1.1-.08-.07-.14.16-.09.22,4.12,5.38,12.1.57,17.26,3.59a12.93,12.93,0,0,1,4.87,5.26c1.7,3.56-1.7,6.27-3.79,8.82a7,7,0,0,1-3.74,2.38c-2.82.72-5.8.27-8.63.92a8.15,8.15,0,0,0-3.46,1.67,9.64,9.64,0,0,0-2.23,3.29,9.21,9.21,0,0,1-7.85,5.18c-.15,0-.18.34,0,.34a8.89,8.89,0,0,0,7.38-3.57c.94-1.27,1.6-2.75,2.84-3.78a8.36,8.36,0,0,1,4.55-1.56,11.26,11.26,0,0,1,7.54,1.4c2.44,1.64,1.93,5.26,1.11,7.63a29.93,29.93,0,0,0-1.73,5.39c-.37,2.54.54,5.05.3,7.57-.19,2-.65,4-.85,6a10.07,10.07,0,0,1-3.2,6.93c-1.48,1.23-3.92,2-4.14,4.17,0,.11.1.14.12,0,.31-2.26,3.49-2.95,5-4.4,2.31-2.29,2.66-5,3.34-7.93.53-2.32,1.62-4.53,1.51-6.9a15.67,15.67,0,0,1,1-7.28c.91-1.95,2.48-3.56,3.23-5.57.84-2.24.61-4.67,1-7a20.34,20.34,0,0,1,1.85-5.44c1.26-2.55,4.54-7.47,8-6.54,2.15.57,2.09,3.27,2.18,5,.16,3.2.47,6.38.47,9.59a28,28,0,0,1-2.91,12.46,19.52,19.52,0,0,0-1.85,8.53c0,2.91.06,5.49-1.36,8.12a35.42,35.42,0,0,1-3.95,5.42c-3.07,3.73-5.61,7.37-5.27,12.42.19,2.91.87,5.82-1,8.35-1.49,2-3.57,3.39-5,5.42-2.82,4-3.63,9-4.63,13.64a47,47,0,0,1-1.66,6.71,21.76,21.76,0,0,1-4.15,6.73c-1.74,2-3.66,4-4.76,6.43a9.75,9.75,0,0,0-.87,3.75c-.05,1.7.29,3.43-.19,5.09-1.29,4.41-6.87,7.23-6.3,12.25,0,.13.13,0,.12-.08-.36-4.58,4.75-7.16,6.45-10.95,1.16-2.59.19-5.43,1.08-8.06.81-2.4,2.71-4.26,4.46-6a27.76,27.76,0,0,0,4.65-5.61,30.6,30.6,0,0,0,2.57-6.24c1.47-4.76,2.24-10,4.65-14.4,1.26-2.31,3.1-3.89,4.9-5.75a9.32,9.32,0,0,0,2.86-6.83c0-2.77-.76-5.49.11-8.2a18.1,18.1,0,0,1,3.33-5.58c2.88-3.61,6.14-7,6.85-11.74.41-2.84-.57-13,4.66-12.45,2,.19,3,2.07,3.91,3.56,1.29,2.06,2.75,4,3.87,6.17,1.42,2.75,1.88,5.81,2.68,8.76a25.09,25.09,0,0,0,2.69,6.17c0,.13.05.26.07.39a18.75,18.75,0,0,1,.16,4.49,61,61,0,0,1-1.73,8c-.55,2.46-.24,4.89-.27,7.38a17.11,17.11,0,0,1-1.75,8.16c0,.05,0,.23.07.13a12.5,12.5,0,0,0,2-6.55,35.86,35.86,0,0,1,1.31-7.7c.49-1.47,1.37-2.72,2-4.13s.5-2.36,2.25-1.95a3.56,3.56,0,0,1,1.91,1.32c1.33,1.6,1.77,4,2.1,6,.68,4.07.52,8.17.67,12.28.19,5.13,1.2,10.85,5.42,14.26.1.08.16-.18.09-.25-4.23-3.74-4.92-9.65-4.63-15,.12-2.3-.77-6.8,2.38-6.59a14.42,14.42,0,0,1,5,1.77,12.33,12.33,0,0,1,1.79,1.05A6.1,6.1,0,0,1,275,350.6s.09-.05.05-.09c-.55-.45-1-1.1-1.5-1.59s-.77-.67-1.17-1c-1.16-.91-2.29-1.86-3.44-2.78a14.89,14.89,0,0,1-3.21-3.13,29.81,29.81,0,0,1-2-4.09,21.55,21.55,0,0,0-1.16-3.1c-1.54-3.29-3.71-6.26-5.43-9.45,0-.13,0-.25-.08-.38a2.49,2.49,0,0,0-.85-1.47,22.37,22.37,0,0,1-1.18-3.11c-.85-3-1.2-6.1-2.39-9-.16-.38-.34-.73-.51-1.1a9.52,9.52,0,0,0,2.15.65c3.93.71,8.07-1,11.87.66,3.24,1.4,5.76,4.11,7.95,6.81,1.78,2.19,2.22,4.85,3.48,7.31.9,1.77,2.09,3.4,2.91,5.21a13.45,13.45,0,0,1,1.28,6.36c0,.22.23.35.29.08a10.64,10.64,0,0,0-.62-5.52,55.09,55.09,0,0,0-2.35-5.54c-.8-1.69-1.84-4-.81-5.85,1.13-2,4.8.16,6.27.81,2.56,1.12,3.51,2.89,4.63,5.28a19,19,0,0,0,2.67,4.54C292,331.28,292.08,331,292,330.89Z" style="fill:#FF6060"></path><path d="M189.34,331.31c-2.83-1.95-6.65-2.91-8.84-5.68-1.05-1.32-1.57-2.93-2.92-4s-3.06-1.62-4.39-2.81a11.57,11.57,0,0,1-3-4.29,14.08,14.08,0,0,1-.46-9.36,2,2,0,0,1,.64-1c1.05-.73,4.09,2,5.11,2.45a19.39,19.39,0,0,0,7,1.35,13.13,13.13,0,0,1,4.78.81,8,8,0,0,1,2.46,2c.19.19.31-.25.25-.37-.88-2-3.22-3-5.15-3.65-2.67-.84-5.57-.65-8.2-1.67a26,26,0,0,1-9.66-7.38,2.47,2.47,0,0,1-.67-1.68c.09-1.13,1.29-1.32,2.15-1.52a21.44,21.44,0,0,0,3.41-1.08c2.14-.87,4.52-1.75,6.86-1.32.06,0,.09-.13,0-.14a15.7,15.7,0,0,0-6.82.13c-5.8,1-11.22,1.32-17,0a24.77,24.77,0,0,1-6.8-2.38,13.29,13.29,0,0,1-4.83-4.82c-1.31-2.13-1.3-5-1.86-7.44a17.9,17.9,0,0,0-1.34-3.89,4.85,4.85,0,0,0-3.56-3,.49.49,0,0,0-.56.33c-.45,1.55.62,2.36,1.23,3.67a16.53,16.53,0,0,1,1.07,3.64c.62,3.08,1.41,6.81,1,9.95a18,18,0,0,1-1.78,5c-.6,1.26-1.2,2.41-1.92,3.61-.52.87-1,1.77-1.47,2.68a7,7,0,0,0-1.67,2.05,20.62,20.62,0,0,0-1.7,3.22,16.81,16.81,0,0,0-1.07,3.45c-.37,1.95-.55,3.69-1.8,5.26-1.5,1.9-3.14,3.51-4.17,5.73a13.61,13.61,0,0,0-1.27,6.83c0,.22.24.16.25,0a13,13,0,0,1,2.29-7.36,23.41,23.41,0,0,1,2.93-3,11.25,11.25,0,0,0,1.39-1.37c.63-.87,1-2.49,2.27-1,.7.83.53,2.27.4,3.28-.27,2.19-1.13,4.26-1.41,6.45-.64,4.83,2.27,9.21,2,14-.21,4.45-4.3,9.58-1.17,13.79.13.17.25-.22.16-.35-2.95-4.25,1.61-8.83,2.09-13.08.54-4.73-1.73-9.36-.72-14.06.47-2.2,1.39-4.28,1.63-6.53.26-2.43-.36-4.81-.32-7.23,0-1.81,2.8-14.11,6-11.74.89.65.91,2.27,1.26,3.24,1.48,4,5,6.83,7.79,9.91.07.08.13-.1.09-.16-1.31-1.73-2.56-3.53-3.86-5.27a13.56,13.56,0,0,1-2.69-5.29c-.39-1.77-1.32-5.44-.24-7.08a2.22,2.22,0,0,1,1.54-1,4.17,4.17,0,0,1,1.22.09,12.79,12.79,0,0,1,2.38,1,25,25,0,0,0,3.27,1c4.55,1,10.69.93,13.49,5.31s2.42,9.84,2.5,14.59c.06,3.53-.31,7.09,0,10.61a22.55,22.55,0,0,0,3.16,9.26c1.69,3,3.59,5.92,4.33,9.33.05.25.3,0,.26-.16-.72-3.89-3-7.22-4.74-10.7a16,16,0,0,1-1.37-12,4.49,4.49,0,0,1,.54-1.34.48.48,0,0,1,.2-.2.43.43,0,0,1,.33.05,5.1,5.1,0,0,1,1.77,1.2,12.27,12.27,0,0,0,2.35,1.51c.79.5,1.73.82,2.48,1.38a8.22,8.22,0,0,1,1.85,2.51c1.84,3,4.91,4.47,8,5.64a19.46,19.46,0,0,1,5.15,2.32,7.68,7.68,0,0,1,3.22,4.82c.06.39.41.15.36-.15C194.4,334.91,191.87,333.06,189.34,331.31Z" style="fill:#FF6060"></path><path d="M184.44,174.2c-15.83,23.91-22.62,42-30.7,60.11s-33.93,46-44.6,66.29-13.25,53.29,18.1,77.85S187,411.74,198,415.94s44.92,18.1,64,4.85c11.25-7.82,23.4-20.71,30.61-41.05-8,20.3-28.5,32.79-47.64,33.41-19.94.64-61.7-12.5-99.42-64.06-28.63-39.12-5-50.81,12.13-101.89C164.41,227.17,167.13,208.22,184.44,174.2Z" style="fill:#FF6060;opacity:0.4"></path><path d="M184.44,174.2c-15.83,23.91-22.62,42-30.7,60.11s-33.93,46-44.6,66.29-13.25,53.29,18.1,77.85S187,411.74,198,415.94s44.92,18.1,64,4.85c11.25-7.82,23.4-20.71,30.61-41.05-8,20.3-28.5,32.79-47.64,33.41-19.94.64-61.7-12.5-99.42-64.06-28.63-39.12-5-50.81,12.13-101.89C164.41,227.17,167.13,208.22,184.44,174.2Z" style="opacity:0.05"></path><path d="M270.12,251.42c-1.88-2-3.46-3.53-4.56-4.72-12.28-13.36-40.72-24.35-40.72-37.28a26.72,26.72,0,0,1,.43-4.78l-.29-.06c-2.78,8.52-1.78,16.45,1.78,27.56s4,30.73,16.47,35.48C255.52,272.31,268.42,260.71,270.12,251.42Z" style="opacity:0.1"></path><path d="M153.23,235.19c0-12-10.08-20.47-23.39-25.53s-20.68-7.36-20.68-7.36l-13.92,1s-5.71,7.14-12.1,16.73-16.91,29.32-18,54.61,9.54,55.9,36.71,56.16c2.42-13.57,9.07-23.15,21.58-37.26S153.23,255.14,153.23,235.19Z" style="fill:#FF6060"></path><path d="M130,277c-10.85,9.75-24.17,12-35-.27s-12.89-33.69-3-54c9.5-19.54,16.69-20.44,17.2-20.48l-13.89,1s-5.71,7.14-12.1,16.73-16.91,29.32-18,54.61,9.54,55.9,36.71,56.16c2.42-13.57,9.07-23.15,21.58-37.26,10.09-11.38,23.26-29.35,28-46.34C148.35,255.84,139.05,268.87,130,277Z" style="opacity:0.1"></path><path d="M227.52,198.38s-5.12,4.9-2.9,17.24c1.75,9.73,6.2,20.42,8.65,30.18,4.18,16.65,9.29,21.69,19.63,18.75s16.82-9.74,19.2-18.54c2.74-10.17,1.69-14.16,9.28-16.25,7.81-2.14,19.21-5.33,19.21-5.33s2.35-10.92-4.65-15.56l-22.36,4.43,19.26-10.84a12.81,12.81,0,0,0-2.36-12.58c-5.06-6.12-7.83-5.07-7.83-5.07s-24.9,13.93-28.91,15.83-6,3.48-14.56.42A56.71,56.71,0,0,0,227.52,198.38Z" style="fill:#FF6060"></path><path d="M227.52,198.38s-5.12,4.9-2.9,17.24c1.75,9.73,6.2,20.42,8.65,30.18,4.18,16.65,9.29,21.69,19.63,18.75s16.82-9.74,19.2-18.54c2.74-10.17,1.69-14.16,9.28-16.25,7.81-2.14,19.21-5.33,19.21-5.33s2.35-10.92-4.65-15.56l-22.36,4.43,19.26-10.84a12.81,12.81,0,0,0-2.36-12.58c-5.06-6.12-7.83-5.07-7.83-5.07s-24.9,13.93-28.91,15.83-6,3.48-14.56.42A56.71,56.71,0,0,0,227.52,198.38Z" style="fill:#fff;opacity:0.1"></path><path d="M272.1,246c2.74-10.17,1.69-14.16,9.28-16.25,7.81-2.14,19.21-5.33,19.21-5.33a20.33,20.33,0,0,0,.31-2.41c-7.17,1.45-19.38,4.5-23.82,6.39-5.31,2.26-4.51,9-7.56,18.17s-12.87,14.86-20.29,15.12S238,251.09,236.36,244.33A135.14,135.14,0,0,0,228,220.59c-2.77-5.68-4.22-13.21-2.93-17.7-.91,2.77-1.5,6.92-.45,12.73,1.75,9.73,6.2,20.42,8.65,30.18,4.18,16.65,9.29,21.69,19.63,18.75S269.72,254.81,272.1,246Z" style="opacity:0.1"></path><path d="M277.79,212.47l-4.21.83,19.26-10.84a12.81,12.81,0,0,0-2.36-12.58c-.13-.16-.26-.3-.39-.45,2,3.31,1.48,7.06-4.33,10.79-5.63,3.6-9.6,5.87-14.94,9.18-4.62,2.86-.33,10.35,2.37,10.58S275.29,213,277.79,212.47Z" style="opacity:0.1"></path><path d="M292.84,202.46a12.66,12.66,0,0,0,.43-7,5.53,5.53,0,0,1-2.75,5.59c-1.66.95-15.12,8.52-18.22,10.3s0,5.72.95,5.36-.22-2.49.33-3.44Z" style="opacity:0.1"></path></g></g><g id="freepik--Character--inject-182"><g id="freepik--Chartacter--inject-182"><g id="freepik--Bottom--inject-182"><path d="M431.53,429.88c.56,5.34,1.56,8.85,3.6,11.91s5.63,3.68,9.27,2.78a13.83,13.83,0,0,0,9.8-8.71c1.18-3.59.47-7.83-.58-12.76Z" style="fill:#263238"></path><path d="M445,390.13c1.5.05,2.28,7.22,3.48,14.38,1.28,7.68,3.84,11.89,4.85,17.06,1.4,7.16,1.05,10.43-1.28,14.92s-11.95,9.48-16.66,3.42c-3.85-4.93-4.26-10.59-4.26-17.83a183.61,183.61,0,0,0-.52-18.39c-.54-5.4-1.16-10.63.11-11.3.14.79.28,1.8.43,2.57.11.6.39,3.53,1.23,3.51a10.78,10.78,0,0,0-.08-2,2.38,2.38,0,0,1,.33-1.76,2.83,2.83,0,0,1,1.63-.82,41.66,41.66,0,0,1,4.42-.89,18.66,18.66,0,0,1,2.23-.2,12.22,12.22,0,0,1,2.76-.1,1.3,1.3,0,0,1,.84.69,2.3,2.3,0,0,1,.12.82,5.75,5.75,0,0,0,.26,1.48c.06.21.22.47.43.4s.23-.27.23-.45c0-.87-.18-1.5-.27-2.51,0-.47-.14-1.1-.17-1.58S445.09,390.59,445,390.13Z" style="fill:#455a64"></path><path d="M448,423.61a.53.53,0,0,1-.45.59.52.52,0,0,1-.15-1A.52.52,0,0,1,448,423.61Z" style="opacity:0.15"></path><path d="M447.22,418.64a.52.52,0,1,1-1,.15.51.51,0,0,1,.44-.59A.52.52,0,0,1,447.22,418.64Z" style="opacity:0.15"></path><path d="M446.53,414a.52.52,0,0,1-.44.6.54.54,0,0,1-.6-.44.53.53,0,0,1,1-.16Z" style="opacity:0.15"></path><path d="M445.85,409.33a.54.54,0,0,1-.44.6.53.53,0,0,1-.16-1A.52.52,0,0,1,445.85,409.33Z" style="opacity:0.15"></path><path d="M435.21,410.7a.52.52,0,1,1-.59-.44A.51.51,0,0,1,435.21,410.7Z" style="opacity:0.15"></path><path d="M435.9,415.35a.52.52,0,0,1-.44.6.54.54,0,0,1-.6-.44.53.53,0,0,1,1-.16Z" style="opacity:0.15"></path><path d="M436.59,420a.52.52,0,1,1-1,.16.52.52,0,0,1,.44-.6A.53.53,0,0,1,436.59,420Z" style="opacity:0.15"></path><path d="M437.33,425a.53.53,0,0,1-1,.16.52.52,0,0,1,.44-.6A.54.54,0,0,1,437.33,425Z" style="opacity:0.15"></path><polygon points="441.84 427.16 436.2 392.52 438.13 392.39 441.84 427.16" style="opacity:0.15"></polygon><path d="M447.47,424h-.08c-3.49-.61-8.2.1-10.46,1.34a.27.27,0,0,1-.36-.11.27.27,0,0,1,.1-.36c2.4-1.31,7.16-2,10.81-1.4a.27.27,0,0,1,0,.53Z" style="fill:#263238"></path><path d="M446.74,419a.23.23,0,0,1-.14,0c-2.69-1.12-7.82,0-10.4,1.36a.27.27,0,0,1-.36-.1.27.27,0,0,1,.1-.37c2.69-1.47,8-2.57,10.87-1.38a.27.27,0,0,1,.14.35A.26.26,0,0,1,446.74,419Z" style="fill:#263238"></path><path d="M446.05,414.29a.23.23,0,0,1-.14,0c-2.7-1.12-7.82,0-10.4,1.36a.26.26,0,0,1-.26-.46c2.69-1.48,8-2.58,10.86-1.39a.28.28,0,0,1,.15.35A.26.26,0,0,1,446.05,414.29Z" style="fill:#263238"></path><path d="M445.37,409.67a.22.22,0,0,1-.14,0c-2.7-1.12-7.83,0-10.41,1.36a.26.26,0,1,1-.25-.46c2.69-1.48,8-2.58,10.86-1.39a.27.27,0,0,1,.15.35A.26.26,0,0,1,445.37,409.67Z" style="fill:#263238"></path><polygon points="396.26 409.66 389.81 407.69 391.6 403.3 395.7 406.66 396.26 409.66"></polygon><path d="M402.05,397.89s.51,4.08.65,5.37-5.12,5.65-6.44,6.4l-.56-3c-1.1,1.26-1.71,2.8-2.84,5.09-.95,1.91-2.08,5.48-4.84,8-4.11,3.8-10.74,6-17.6,6.7s-10.91-.76-13-2.13-2.78-3.07-2.4-4.85S402.05,397.89,402.05,397.89Z" style="fill:#263238"></path><path d="M382.77,385.05l-.23-2.37c-1.27,0-1.21,3.5-2.87,6.64a61.81,61.81,0,0,1-8.9,13c-6.58,6.79-12.55,11.18-15.48,14.24-3.92,4.09,3.78,9.71,15,8.38,5.56-.67,15.28-4.09,17.85-7.56s4-8.71,6-11.25,6.71-5.24,7.91-8.23c.67-1.65,0-5.34-.63-8.48-.6-2.88-1-7.32-2.58-6.86l0,1.5c-.59,1.31-2,3.51-6.45,4.55C390.15,389.12,383.47,389.74,382.77,385.05Z" style="fill:#455a64"></path><path d="M388.77,388.94c-2.16,0-4.51-.61-5.53-2.49,0,0,0,0-.05-.06a5.46,5.46,0,0,1-1.16,4.67c-1.86,2.47-13.5,19.84-13.5,19.84s11-14.41,13.05-17.13c3.11-4,4.14-4.52,7.2-4.82Z" style="opacity:0.15"></path><path d="M386.24,393.51a.69.69,0,1,0,.56-.79A.68.68,0,0,0,386.24,393.51Z" style="opacity:0.15"></path><path d="M383.16,397.38a.68.68,0,1,0,.56-.79A.67.67,0,0,0,383.16,397.38Z" style="opacity:0.15"></path><path d="M380.07,401.26a.69.69,0,1,0,.56-.8A.69.69,0,0,0,380.07,401.26Z" style="opacity:0.15"></path><path d="M377,405.13a.69.69,0,1,0,.56-.8A.7.7,0,0,0,377,405.13Z" style="opacity:0.15"></path><path d="M373.91,409a.69.69,0,1,0,.56-.8A.69.69,0,0,0,373.91,409Z" style="opacity:0.15"></path><path d="M387,393.67a.28.28,0,0,0,.17-.1.28.28,0,0,0,0-.39c-.15-.12-3.65-3.1-8-2.58h0a.28.28,0,1,0,.07.55c4.06-.49,7.49,2.42,7.53,2.45A.26.26,0,0,0,387,393.67Z" style="fill:#263238"></path><path d="M383.87,397.53a.23.23,0,0,0,.17-.1.27.27,0,0,0,0-.39c-.14-.12-3.65-3.1-7.95-2.58h0a.27.27,0,0,0-.23.31.26.26,0,0,0,.3.24c4.06-.49,7.5,2.42,7.53,2.45A.27.27,0,0,0,383.87,397.53Z" style="fill:#263238"></path><path d="M380.79,401.41a.28.28,0,0,0,.17-.09.27.27,0,0,0,0-.39c-.14-.13-3.65-3.11-7.95-2.59h0a.28.28,0,0,0-.23.31.26.26,0,0,0,.3.24c4.06-.49,7.5,2.43,7.53,2.46A.29.29,0,0,0,380.79,401.41Z" style="fill:#263238"></path><path d="M377.71,405.28a.32.32,0,0,0,.17-.09.27.27,0,0,0,0-.39c-.15-.13-3.65-3.11-8-2.58h0a.27.27,0,1,0,.07.54c4.06-.49,7.49,2.43,7.53,2.46A.29.29,0,0,0,377.71,405.28Z" style="fill:#263238"></path><path d="M374.62,409.15a.26.26,0,0,0,.17-.09.27.27,0,0,0,0-.39c-.15-.13-3.65-3.11-8-2.58h0a.28.28,0,0,0,.08.55c4.05-.5,7.49,2.42,7.52,2.45A.31.31,0,0,0,374.62,409.15Z" style="fill:#263238"></path><path d="M439,221.73c5.74,39.35,7.16,94.5,7.16,94.5a179.06,179.06,0,0,1,3.34,27.44c.65,15.73.3,59,.3,59s-10.37,6.85-21.33,1.85c0,0-9.71-49.24-14-72-3.47-18.15-7.45-42.71-7.45-42.71l-2.59,21.92s2.42,13.5,2,25.43c-.31,9.2-4,54.27-4,54.27s-14.69,7.16-25.17-2.7c0,0-4.55-66.91-5.56-77.93-2-21.61-.41-59.6-1.54-87.6Z" style="fill:#37474f"></path><path d="M407,290.2l-6.81-37.3s-10.56-.84-16.26-5.41c0,0,3.9,6.29,13.94,8.17l6.37,33.82.17,22.64Z" style="fill:#263238"></path></g><g id="freepik--Top--inject-182"><path id="freepik--Chest--inject-182" d="M415.65,134.75c4.16.71,9.18,1.63,9.18,1.63,10.61,4.3,15.21,6.37,17.44,7.25a192.66,192.66,0,0,1-1.48,36.27c-.56,4.25-.94,16.31-.73,25.19.29,12,.7,25.91.7,25.91s-12.58,7.79-41.84,6.58c-23-1-29.19-8.14-29.19-8.14s.46-34.46.48-51.38c0-22.23,6.2-34.92,11-39l14.6-3.45Z" style="fill:#455a64"></path><g id="freepik--Head--inject-182"><g id="freepik--head--inject-182"><path d="M424.18,90.9c-1.84-4.6-5.62-5-5.62-5-1.16-4.91-9-10.75-18.95-10.3-12.41.55-17.5,4.61-19.55,10.87a14.32,14.32,0,0,0,1.67,11.81l29.2-3.15a26.5,26.5,0,0,0,.35,4.13c.7,4.4,5,9.57,5,9.57l0,6.17.3,8.85a120.51,120.51,0,0,0,6.46-15.76C425.36,100.79,425.53,94.29,424.18,90.9Z" style="fill:#263238"></path><path d="M421.43,100.21a1.74,1.74,0,0,1-2.36-.75c-.16-.39-.17-.86-.45-1.17s-1.05-.34-1.58-.53a1.58,1.58,0,0,1-.81-.67,7.29,7.29,0,0,0-.6-1.33c-.66-.79-2-.41-2.82-1.08-.44-.39-.58-1-1-1.42a6.8,6.8,0,0,0-.91-.51,1.65,1.65,0,0,1-.76-1c-.07-.38.06-1,.46-1.16a3,3,0,0,1,1.55.19,2,2,0,0,1,1.45,2,1.16,1.16,0,0,0,.89,1.45c.49.15,1,.15,1.49.27a1.46,1.46,0,0,1,1.11.93,4.07,4.07,0,0,1,0,.78c0,1.16,1.75,1,2.47,1.47a.87.87,0,0,1,.33.38c.13.31,0,.66,0,1C420,99.86,420.81,100,421.43,100.21Z" style="fill:#455a64"></path><path d="M419.26,102.23a1.74,1.74,0,0,1-2.35-.75c-.16-.39-.17-.86-.45-1.17s-1-.34-1.58-.53a1.53,1.53,0,0,1-.81-.67,7.29,7.29,0,0,0-.6-1.33c-.66-.79-2-.41-2.82-1.08-.44-.39-.58-1-1-1.42a6.34,6.34,0,0,0-.92-.51,1.67,1.67,0,0,1-.75-1c-.07-.38.06-1,.46-1.16a3,3,0,0,1,1.55.19,2,2,0,0,1,1.45,2,1.16,1.16,0,0,0,.89,1.45c.48.15,1,.15,1.49.28a1.4,1.4,0,0,1,1.1.92,3.38,3.38,0,0,1,0,.78c0,1.16,1.75,1,2.47,1.47a.87.87,0,0,1,.33.38c.13.31,0,.66,0,1C417.81,101.88,418.65,102,419.26,102.23Z" style="fill:#455a64"></path><path d="M424,117c-3.15,2.3-6.26-.89-6.26-.89l.31,17.28s-.05,4.52-5.47,7.94c-8.11,2.94-11.94,5.89-15.82,10.2l-1.85,0c-1.29-6.82-2.33-9.23.11-16.92v-4.41a17.24,17.24,0,0,1-3.8,0c-4.09-.4-6.83-3.46-8.3-7.78-2.36-7-2.71-19.29.22-32,5.12-4.39,18.39-4.6,28.28.89,0,8.09,2.47,11.55,2.62,14.48a7.39,7.39,0,0,0,1.89,2.17c1.56,1.2,2.57-2.2,3.74-3.58s5.14-3.38,7.42.78S426.76,115,424,117Z" style="fill:#b16668"></path><path d="M401,98.53l4.29,2.32a2.55,2.55,0,0,0-1-3.39A2.37,2.37,0,0,0,401,98.53Z" style="fill:#263238"></path><path d="M383.93,99.69,388.57,98a2.37,2.37,0,0,0-3.06-1.55A2.6,2.6,0,0,0,383.93,99.69Z" style="fill:#263238"></path><path d="M403.37,103.4a2,2,0,1,1-2-1.94A2,2,0,0,1,403.37,103.4Z" style="fill:#263238"></path><path d="M388.94,103.31a2,2,0,1,1-2-1.94A1.81,1.81,0,0,1,388.94,103.31Z" style="fill:#263238"></path><path d="M396.79,98.74l-2,12.82-6.59-1.65C390.61,104.18,394,99.63,396.79,98.74Z" style="fill:#9a4a4d"></path><path d="M408.37,103a1.41,1.41,0,0,0-.52-.32l-.33-.09a6.29,6.29,0,0,0-.74-.11,3.64,3.64,0,0,0-1.5.16c-.12,0-.07.32.05.34a13,13,0,0,0,1.54.1,4.52,4.52,0,0,1,.63.08l.34.1.14,0,.21.06h.12C408.5,103.43,408.45,103.12,408.37,103Z" style="fill:#9a4a4d"></path><path d="M407,104.84c-.08-.06-.14-.14-.22-.19a2.9,2.9,0,0,0-.75-.31,3.58,3.58,0,0,0-.45-.09,2.57,2.57,0,0,0-.48,0c-.17,0-.1.37,0,.39a5.72,5.72,0,0,1,.84.2l.35.13c.13,0,.24.12.36.17s.3.14.37,0A.26.26,0,0,0,407,104.84Z" style="fill:#9a4a4d"></path><path d="M382.09,103.1h0l-.09-.06A.14.14,0,0,0,382.09,103.1Z" style="fill:#9a4a4d"></path><path d="M383.94,102.88a1.42,1.42,0,0,0-.56-.18q-.35-.06-.69-.09l-.49,0h-.3a.42.42,0,0,0-.31.13c-.13.15,0,.38.14.46l.1,0a1.36,1.36,0,0,0,.57.07H383l.47,0a.84.84,0,0,0,.47-.08C384.09,103.16,384,102.94,383.94,102.88Z" style="fill:#9a4a4d"></path><polygon points="382.11 103.12 382.1 103.11 382.1 103.11 382.11 103.12" style="fill:#9a4a4d"></polygon><path d="M384,104.25a1.3,1.3,0,0,0-.52,0l-.46,0-.81,0a.25.25,0,0,0-.2.34.44.44,0,0,0,.4.31h.28l.2,0,.43,0a3,3,0,0,0,.43-.1c.11,0,.28-.09.34-.2S384.09,104.29,384,104.25Z" style="fill:#9a4a4d"></path><path d="M382.71,104.89Z" style="fill:#9a4a4d"></path><path d="M402.07,94c-1.1-.47-2.59-.11-3.72,0a20.11,20.11,0,0,1-3.79.36c-2.32-.11-4.72-1.56-7.06-.83-.05,0-.07.14,0,.13a9.15,9.15,0,0,1,3.67.54,15.12,15.12,0,0,0,3.49.81,14.61,14.61,0,0,0,3.84-.39c.58-.12,1.17-.24,1.77-.33a9.78,9.78,0,0,0,1.79-.26S402.1,94,402.07,94Z" style="fill:#9a4a4d"></path><path d="M414.13,104.6c-.34,8.69-3.32,9.32-6.4,9.85-4.08.71-6.12-1.49-13.43-1.42-4.43,0-5.81,1.36-8.32,2.42-1.86.78-3.79.69-4.1-1.1a62,62,0,0,1-.62-11.24,81.29,81.29,0,0,0,0,15.77c.64,4.08,1.75,7.89,4,9.78,3.14,2.62,9.73,3,17.89,1.09s11.16-4.61,12.12-7.5c3.11-9.39,1.82-13.81,2.88-15.59S414.13,104.6,414.13,104.6Z" style="fill:#263238"></path><path d="M395.32,115.62c4.18-.12,5.55.63,5.77,3.48.32,4.09.13,5.47-1.43,5.69-1.84.27-3.19.39-3.26-.77a4.5,4.5,0,0,1,.24-2.62c.64-.78.41-.9-1.42-.84s-1.8.38-1.26.94c.4.41.38,1.81.38,2.62s-.19,1.22-2.82,1c-2.3-.2-1.93-2-1.91-5.56C389.62,117.19,390.6,115.76,395.32,115.62Z" style="fill:#b16668"></path><path d="M398.05,116.65l-5.55.81a2.75,2.75,0,0,0,3.12,2.45A2.92,2.92,0,0,0,398.05,116.65Z" style="fill:#9a4a4d"></path><path d="M397.33,117.49a2.93,2.93,0,0,1,.67.06,2.88,2.88,0,0,1-2.38,2.36,2.46,2.46,0,0,1-.9,0A2.58,2.58,0,0,1,397.33,117.49Z" style="fill:#f28f8f"></path></g></g><g id="freepik--Tie--inject-182"><path d="M392.41,154.2s-3.39-5.88-3.47-8.26l3.74-4.14,1.48,9.74Z" style="fill:#263238"></path><polygon points="397.35 151.56 403.8 146.84 409.44 150.35 399.48 155.89 397.35 151.56" style="fill:#263238"></polygon><path d="M399,214.83c1.22-13.65-2.07-50.78-1.88-55.61l-3.38-.21c-2.13,5.87-7.38,44.24-7.38,53.6,0,4.51,4.55,12.42,6,12.68S398.78,217.73,399,214.83Z" style="fill:#37474f"></path><path d="M393.51,159.86c.08-.28.19-.62.27-.85h0l3.38.21h0c0,.4,0,.92,0,1.51A5.94,5.94,0,0,1,393.51,159.86Z" style="fill:#263238"></path><path d="M397.35,151.56a14.22,14.22,0,0,0-3.19,0,7.57,7.57,0,0,0-1.75,2.66,11.53,11.53,0,0,0,1.37,4.81,4,4,0,0,0,3.38.21,7.11,7.11,0,0,0,2.32-3.33A6.41,6.41,0,0,0,397.35,151.56Z" style="fill:#37474f"></path><path d="M396.79,151.5l.56.06a20.63,20.63,0,0,1,3.95-3.41c.93-.46,4.61,6.18,5.29,7.91s.56,1.7,2.93.23a45.72,45.72,0,0,0,10.88-9.81,29.25,29.25,0,0,0,5.06-8.78,32.9,32.9,0,0,1-3.86-4.63c-1.42-2.75-2.1-6.88-3.65-6.7l-.55,3.12c-.34,2.34-3.45,5.92-6.84,8.65s-7.88,5.53-9.18,6.7A48,48,0,0,0,396.79,151.5Z" style="fill:#37474f"></path><path d="M385.79,151.36c.34,1,3.64-6.45,5.14-6.24.72.08,2.5,4.18,3.77,6.37h.24c-.23-2.89-.5-5.36-.48-6.89,0-2.79.6-7.54.6-7.54v-6.19c-.51,0-1.06,0-1.48.07a7.42,7.42,0,0,0-1.16,1.38c-1.54,2.35-5.55,7.77-6.12,10.63A25.31,25.31,0,0,0,385.79,151.36Z" style="fill:#37474f"></path></g></g><g id="freepik--Arm--inject-182"><path d="M318.77,149.11c7.72,4.68,22.7,14.26,22.7,14.26s13.43-11.16,16.81-13.81c9.68-7.56,11.12-9,20.06-9.92l-.65,24.3c-8.81,6.71-24.07,15.84-33.44,20.8-4.75,2.52-7.43,1.49-13.27-3.54-7.44-6.4-24.16-22.4-24.16-22.4Z" style="fill:#b16668"></path><path d="M378.62,139c-7.87,2-10.37,2.22-15.38,5.85-3.92,2.83-22,18.09-22,18.09l-9.78-6.29s.77,2.9-4.58,8.74c-2.76,3-9.06,4.75-9.06,4.75s5.21,4.78,10.29,9.38c3.56,3.22,7.13,7.12,10.73,7.47s6.11-1.62,16.53-7.56a244.51,244.51,0,0,0,23.22-15.22Z" style="fill:#e0e0e0"></path><path d="M341.48,162.51a22.68,22.68,0,0,1,4.81,11.22,18.26,18.26,0,0,0-3.3-12.38Z" style="opacity:0.1"></path><path d="M319.66,149.65c-5.94-3.63-9.63-7.09-10.33-12.36s-.32-8.07-.9-9.2-5.28-5.65-6.74-8-2.57-1.95-4.82-2.56c-2.69-.74-13.27-1.83-13.24-1a4.32,4.32,0,0,0,2.7,4.4c2,.89,7.75,1.73,7.75,1.73s-1.5,2.39-2.24,3.41-.48,1.75,1.13,4.56c0,0-1.31.79-1.37,1.9a6.49,6.49,0,0,0,1,3.12,3,3,0,0,0-1.12,1.52c-.29,1,.85,3.38,2.15,5.36a33.72,33.72,0,0,0,2.43,7.78c1.26,2.54,3.1,3.37,5.18,4.3,1.4.62,5.46,4.05,7.06,5.35C308.26,160,325.09,153,319.66,149.65Z" style="fill:#b16668"></path><path d="M305.61,129.51a9.91,9.91,0,0,1-4.44-4.63c-.85-2-1.65-4.25-2.34-4.18-1.16.11-3,2.62-1.95,6,1,3.21,3.12,6.85,3.36,7.79s-.28,3.3-.74,5.12a9.12,9.12,0,0,0,4.34,9.54,8.43,8.43,0,0,1-4.82-4c-2.07-3.43-.37-7.4-.16-9.22s.25-2.18-1.23-5-3.1-5.95-1.16-9.21,3.2-2,3.74-1S302.29,127.67,305.61,129.51Z" style="fill:#9a4a4d"></path><path d="M294.08,122.68l2.28.77-.61.65a2.79,2.79,0,0,0-2.95.58Z" style="fill:#9a4a4d"></path><path d="M293,130.65c.5.94,2.22,3.77,2.57,4.35s1.48.23,2-1a4.4,4.4,0,0,0,.27-3.24,4.8,4.8,0,0,1,.26,3.41c-.62,1.64-1.69,2-2.39,1.87S294.05,132.66,293,130.65Z" style="fill:#9a4a4d"></path><path d="M292.56,135.67c.37.71,1,1.6,2.08,3.55.61,1.13.95,1.87,1.68,1.68s1.79-1.92,1.42-3.34a10.71,10.71,0,0,0-.91-2.38l.55-.33a8.42,8.42,0,0,1,1.12,3.83c-.07,1.78-1.57,3.37-2.39,3s-1.14-1-1.94-2.65S292.56,135.67,292.56,135.67Z" style="fill:#9a4a4d"></path><path d="M295.78,141.14c.19.49.07,1.66-.76,1.81a1.84,1.84,0,0,1-1.43-.4,1.54,1.54,0,0,0,1.59.83c1-.18,1.35-1.28,1.39-2.18Z" style="fill:#9a4a4d"></path></g><path d="M418,129.73l.08,1.78s2,5.4-1,15.82-9.37,24.17-9.45,34.65,5.89,111.37,5.89,111.37,28.32-.44,36.61-11.89c-.28-8.91-6.18-40.16-7.58-61.84-.65-10.09.48-26.6,1.76-42.6a145.88,145.88,0,0,0-1.92-35.38,55.94,55.94,0,0,1-15.34-5.46C420.68,132.59,418,129.73,418,129.73Z" style="fill:#f0f0f0"></path><path d="M417.94,125.59c3.26,0,6.89,9.37,9.11,10.59,1.07,7.39-1.25,21.06-1.51,25.45s-8.34,10.11-8.34,10.11l6.62,11.72s-15.11,21.78-14.91,33.26c0,0-3.63-27.55-1.48-39.69,1.95-11,10-31.84,10.57-47.41Z" style="fill:#e0e0e0"></path><path d="M395.05,131.31v3.09a25.72,25.72,0,0,0-9,12.37c-3.14,8.62-6.92,22.67-7.75,45.42-1.67,46.13-1.82,98.24-1.82,98.24a22.45,22.45,0,0,1-13.15-5.06s0-37.37.87-62.63c1-30.13.69-45.05,1.35-57.44.82-15.7,8.42-23.33,11.8-26C382.86,137.72,391.71,135.48,395.05,131.31Z" style="fill:#f0f0f0"></path><path d="M395.05,130.9v3.78a22,22,0,0,0-6,7.07c-2.27,4.39-5.09,8.74-7.43,22.29s-3.46,36.58-4,45.4c-1.19-3.66-5.94-31.67-6.2-34.18s5.94-10.45,5.94-10.45-2.56-6.28-1.54-9.13a140.18,140.18,0,0,1,10.6-19.54,24.14,24.14,0,0,1,5-5.33A23.34,23.34,0,0,0,395.05,130.9Z" style="fill:#e0e0e0"></path><path d="M410.35,144l-.73-.84c7.49-6.53,13-16.78,13.59-18.1,0,0,1.39-4,.23-10.46l1.1-.2c1.22,6.83-.23,10.91-.29,11.08C423.54,127.1,418,137.31,410.35,144Z" style="fill:#455a64"></path><path d="M395.05,130.91c0,.31,0,.63,0,1l-.6,1.12a2.07,2.07,0,0,0-1-.47c.32-.64.59-1.15.87-1.64Z" style="fill:#455a64"></path><path d="M424.6,111.11h0a2.56,2.56,0,1,0-2.72,3.63h0s1,0,1.32,1.48a9.73,9.73,0,0,1,.29,2.82,1.49,1.49,0,0,0,1.8-.39C425.68,116.68,425.36,112.39,424.6,111.11Z" style="fill:#37474f"></path><path d="M356.14,178.36a52.2,52.2,0,0,1-7.05-.5c-29.21-4-47.55-32.11-53.57-41.35l1.67-1.09c5.91,9.05,23.86,36.59,52.17,40.46,17.62,2.41,31.52-4.41,41.34-20.28l1.7,1.05C383.48,171.08,371.3,178.36,356.14,178.36Z" style="fill:#FF6060"></path><path d="M416.87,137.9a105,105,0,0,1-9.37,9.9c-2.3,1.87-8.57,6.77-13,8.58a7.81,7.81,0,0,1-2.72.68,2.9,2.9,0,0,1-.75-.1c-.77-.26-3.1-1-2.4-14.11.12-2.3,3.45-8.8,4.12-10.07a.62.62,0,0,1,.65-.21,2.07,2.07,0,0,1,1,.47c.28.24.44.52.3.77-1.45,2.79-3.78,7.74-3.86,9.16-.36,6.69.19,11.3.93,11.89.47.15,1.55-.24,3-1A78.54,78.54,0,0,0,406,146.12a107.66,107.66,0,0,0,9.07-9.6C415.73,135.9,417.29,137.34,416.87,137.9Z" style="fill:#FF6060"></path><path d="M300.87,129.83a7.5,7.5,0,0,0-3.87-5.54,2,2,0,0,0-2.06.1l-2.28,1.75a2.75,2.75,0,0,0-.75,2.64,7.51,7.51,0,0,0,3.88,5.54,2,2,0,0,0,2-.1l2.28-1.74A2.78,2.78,0,0,0,300.87,129.83Z" style="fill:#263238"></path><path d="M298.59,131.57c.3,2.29-1,3.52-2.8,2.75a7.51,7.51,0,0,1-3.88-5.54c-.29-2.29,1-3.52,2.81-2.75A7.5,7.5,0,0,1,298.59,131.57Z" style="fill:#263238"></path><path d="M299.81,133.19c-.54-4.19-3.72-8.73-7.1-10.14a3.65,3.65,0,0,0-3.76.18l-1.46,1.11c-1.11.85-1.66,2.56-1.37,4.85.54,4.19,3.72,8.73,7.1,10.14a3.68,3.68,0,0,0,3.76-.18l1.46-1.11C299.55,137.19,300.1,135.48,299.81,133.19Z" style="fill:#37474f"></path><path d="M298.35,134.29c.54,4.2-1.76,6.45-5.13,5s-6.56-6-7.1-10.14,1.76-6.45,5.14-5S297.81,130.1,298.35,134.29Z" style="fill:#455a64"></path><path d="M297,133.73c.42,3.26-1.37,5-4,3.91s-5.1-4.62-5.52-7.88,1.37-5,4-3.92S296.57,130.47,297,133.73Z" style="fill:#e0e0e0"></path><path d="M301.07,125c-.78-2-1.27-4.36-2.2-4.26-1.16.13-3.13,2.53-2.14,5.92s2.95,6.93,3.15,7.88l5.48-4.78A9.87,9.87,0,0,1,301.07,125Z" style="fill:#b16668"></path><g id="freepik--arm--inject-182"><path d="M374.57,208a10.73,10.73,0,0,1,2.09.48c.75.24,1.44.51,2.22.68s1.63.35,2.45.49c1.15.21,2.3.47,3.47.61a25.9,25.9,0,0,0,6.64-.08c.7-.1,1.4-.22,2.09-.38.32-.07.72-.26.68-.59,0-.18-.19-.31-.34-.42-.86-.58-1.83-1-2.73-1.53a6.08,6.08,0,0,1-2.31-2.07c-.37-.63-.87-2.41-.07-3,.6-.41,1.83.3,2.38.54a22.22,22.22,0,0,0,3.67,1.29c1.36.32,2.76.42,4.12.72a14.32,14.32,0,0,1,5,2.14c1.4,1,2.67,2.14,4.16,3,2.84,1.59,7.42,1.25,11.53.66,8.42-1.22,23.35-5.57,23.35-5.57l-2.12-29c-1.92-8.63.48-29,5.21-31.76,2.05.65,7.53,1.11,12.07,8.3,2.47,3.93,3.69,13.43,5.13,29.48,1,11.41,1.86,18.45,1.81,28.77-.07,11.49-4.8,14.53-15.17,14.92-17.37.66-33.53.51-37.35.51s-7.53-.11-10.86-.41c-1.71-.15-3.43-.49-5.13-.55a11,11,0,0,1-6.2-1.82c-2.23-1.64-3.57-4.54-6.2-5.44a16.32,16.32,0,0,1-2.38-.72c-1.29-.67-1.9-2.1-2.91-3.08a13.87,13.87,0,0,0-2.14-1.49l-2.42-1.59a11.38,11.38,0,0,1-1.68-1.24,1.77,1.77,0,0,1-.41-.5C371.59,208.12,373.84,207.92,374.57,208Z" style="fill:#b16668"></path><path d="M442.39,141.64c13.53,2.57,16.1,6.92,17.51,12.52,1.91,7.51,3.39,19.05,5.26,37.52,1.43,14,1.14,21.28.78,24.24s-.91,8.64-10.7,10.07c-7.31,1.07-24.75.57-24.75.57s4.05-10.73-1.24-18l13.28-3.86-5.56-30S433.7,149.13,442.39,141.64Z" style="fill:#e0e0e0"></path><path d="M442.53,204.73s9.36-2.18,13.5-.66c0,0-3.62-3.29-14-2Z" style="opacity:0.1"></path></g></g></g><g id="freepik--speech-bubble--inject-182"><g id="freepik--speech-bubble--inject-182"><rect x="226.03" y="52.7" width="126.36" height="38.4" rx="3.77" style="fill:#fafafa"></rect><path d="M351.89,57.24h-13V52.7h-1v4.54h-13V52.7h-1v4.54h-13V52.7h-1v4.54h-13V52.7h-1v4.54h-13V52.7h-1v4.54h-13V52.7h-1v4.54h-13V52.7h-1v4.54h-13V52.7h-1v4.54h-13V54.63a3.7,3.7,0,0,0-.5,1.84V87.32a3.7,3.7,0,0,0,.5,1.84V87.05h13v4h1v-4h13v4h1v-4h13v4h1v-4h13v4h1v-4h13v4h1v-4h13v4h1v-4h13v4h1v-4h13v4h1v-4h13v2.11a3.7,3.7,0,0,0,.5-1.84V56.47a3.7,3.7,0,0,0-.5-1.84ZM239.57,85.81h-13v-13h13Zm0-14.29h-13v-13h13Zm14,14.29h-13v-13h13Zm0-14.29h-13v-13h13Zm14,14.29h-13v-13h13Zm0-14.29h-13v-13h13Zm14,14.29h-13v-13h13Zm0-14.29h-13v-13h13Zm14,14.29h-13v-13h13Zm0-14.29h-13v-13h13Zm14,14.29h-13v-13h13Zm0-14.29h-13v-13h13Zm14,14.29h-13v-13h13Zm0-14.29h-13v-13h13Zm14,14.29h-13v-13h13Zm0-14.29h-13v-13h13Zm14,14.29h-13v-13h13Zm0-14.29h-13v-13h13Z" style="fill:#f0f0f0"></path><path d="M352.11,82.41c-.2-1-.32-2.14-.62-3.16a2.26,2.26,0,0,0-1.38-1.63,1.32,1.32,0,0,0-1.61.79,7.46,7.46,0,0,1-.53,1,3.15,3.15,0,0,1-.94.76c-.55.34-1.15.69-1.33,1.36-.12.44,0,1.06-.59,1.09-.31,0-.66,0-.92.15a1,1,0,0,0-.26.82c0,.88-.89.72-1.47.46s-1.37-.64-2-.24c-.34.22-.47.62-.79.86a1.5,1.5,0,0,1-1.59,0c-1-.59-1.13-1.92-1.26-2.93-.23-1.78-.35-3.6-.49-5.39-.27-3.46-.48-6.93-.69-10.39-.1-1.62-.2-3.24-.32-4.85a25,25,0,0,0-.31-2.86c-.06-.33-.62-.6-.71-.16a9.72,9.72,0,0,0-.12,1.7c-.07,1.26-.12,2.52-.18,3.78-.14,3.44-.28,6.89-.44,10.33-.14,3-.25,5.91-.51,8.85,0,.4-.07.79-.13,1.18a1.38,1.38,0,0,1,0,.2c0,.12,0,.09,0,.08a5.08,5.08,0,0,0-.34-.48,1.31,1.31,0,0,0-.69-.33c-.3-.07-.6,0-.9-.11s-.51-.33-.72-.63a7.13,7.13,0,0,0-1.27-1.52,2.33,2.33,0,0,0-3.05-.1,3.63,3.63,0,0,0-1.13,1.21c-.33.66-.25,1.37-1.25,1.16a7.31,7.31,0,0,0-2-.32,5,5,0,0,0-1.88.51.84.84,0,0,1-1.05-.14,2.13,2.13,0,0,0-.62-.4,6.11,6.11,0,0,0-2-.38,4.37,4.37,0,0,0-1.8.15,9.62,9.62,0,0,1-2.22.79c-1.26.1-2.83-.06-3.5-1.28a8.27,8.27,0,0,1-.73-2.86,10.48,10.48,0,0,0-.62-2.7,2.48,2.48,0,0,0-2.23-1.69c-1.2.11-2.06,1.44-2.59,2.39a8.38,8.38,0,0,1-.91,1.85c-.29.31-.61.09-1,.17a.94.94,0,0,0-.55.39c-.35.45-.51,1-.83,1.51a5.9,5.9,0,0,1-1.6,1.55,5.72,5.72,0,0,1-4.45.77,3,3,0,0,1-1-.34c-.43-.26-.42-.61-.44-1.05,0-.82-.1-1.64-.14-2.46,0-.28,0-.56,0-.84l-.15-3.43c-.25-5.94-.42-11.9-.81-17.84a3.79,3.79,0,0,0-.05-.58c-.06-.35-.71-.57-.76-.11-.22,1.82-.24,3.67-.32,5.49-.15,3.07-.28,6.13-.4,9.2-.1,2.57-.2,5.14-.28,7.71,0,.91-.05,1.83-.05,2.74s.07,1.84,0,2.76a1.09,1.09,0,0,1-.05.44c-.08.18,0,.19-.15.12s-.28-.41-.39-.52a1.54,1.54,0,0,0-.59-.38,5,5,0,0,0-1.33-.15,1.9,1.9,0,0,1-1.16-.56c-.59-.55-1-1.25-1.62-1.79a2.19,2.19,0,0,0-1.83-.6c-1,.19-1.5,1.14-2,1.92a2.4,2.4,0,0,1-1.3,1.15c-.64.16-1-.65-1.42-1-.93-.65-1.88-.09-2.81.24a5.46,5.46,0,0,1-2.07.34,3.73,3.73,0,0,1-2-.82A5.43,5.43,0,0,0,267,82c-1.14,0-1.7.78-2.51,1.43a3.81,3.81,0,0,1-3.62.33c-2.07-.68-3.05-2.35-3.68-4.33a13.33,13.33,0,0,0-.91-2.87,2.37,2.37,0,0,0-2.52-1,2.45,2.45,0,0,0-.95.94,5.24,5.24,0,0,0-1,1.63c-.08.26-.06.47-.32.61s-.32.08-.46.19a2.28,2.28,0,0,0-.67,1.09,15.91,15.91,0,0,0-.59,1.49c-.2.61-.33,1.23-1.08,1.26a4.32,4.32,0,0,0-1.39.07c-.47.18-.59.57-.91.92s-1.35.36-1.87.38-1.9.17-2.23-.39A5.58,5.58,0,0,1,242,81.9c-.11-.76-.2-1.53-.27-2.29-.27-2.8-.4-5.61-.59-8.42s-.4-5.84-.59-8.76c-.1-1.42-.19-2.84-.28-4.26,0-.44-.92-.62-1-.11-.44,6.24-.79,12.49-1.13,18.74-.08,1.55-.09,3.1-.17,4.65,0,.41-.05.81-.08,1.21a3.67,3.67,0,0,0-.11.92l-.06.19c.28.1.35.08.21-.07a1.27,1.27,0,0,0-.23-.34,2,2,0,0,0-.58-.51,3.22,3.22,0,0,0-1.35-.41,2.05,2.05,0,0,1-1-.2c-.28-.19-.39-.6-.55-.88A3,3,0,0,0,232,79.82a2.16,2.16,0,0,0-2.2,1.79c-.23.73-.41,1.35-1.28,1.45s-1.67.07-2.49.1c-.67,0-.36.88.2.86.76,0,1.53,0,2.29-.09a2.35,2.35,0,0,0,1.54-.54c.73-.72.55-2.43,1.69-2.7,1.32-.31,1.63,1.34,2.32,2a2.35,2.35,0,0,0,1.48.57,1.79,1.79,0,0,1,1.56.75c.56.79,1.47.81,1.68-.24A27.5,27.5,0,0,0,239,79c.1-3.25.33-6.5.52-9.75.22-3.65.43-7.3.69-10.94l-1-.11c.39,6,.82,11.92,1.21,17.89.09,1.45.2,2.9.36,4.35.08.64.16,1.28.26,1.92a4.69,4.69,0,0,0,.45,1.81c.61,1,2.21.87,3.2.83a10.51,10.51,0,0,0,1.68-.17c.62-.14.72-.58,1.11-1s1-.17,1.56-.21a1.49,1.49,0,0,0,1.11-.61,6.58,6.58,0,0,0,.59-1.51,12.11,12.11,0,0,1,.65-1.53c.25-.45.74-.35,1-.75s.28-1,.56-1.38.93-1.64,1.65-1.46.92.77,1.11,1.43c.52,1.82,1,3.76,2.34,5.18a6.26,6.26,0,0,0,5.78,1.76,3.34,3.34,0,0,0,1.24-.64,7.15,7.15,0,0,1,1.37-1.15c1.3-.59,2.55.8,3.55,1.42a4.51,4.51,0,0,0,3.46.51,10.38,10.38,0,0,0,1.63-.54,2,2,0,0,1,.83-.22c.47,0,.64.37.92.67a1.76,1.76,0,0,0,2.59.07c.78-.68,1.07-2,2-2.46s1.54.42,2.05,1A5.37,5.37,0,0,0,285.36,85a3.18,3.18,0,0,0,1.18.23,1.89,1.89,0,0,1,.85.11c.25.15.36.48.57.68.44.41,1.14.48,1.37-.17a4.63,4.63,0,0,0,.06-1.7c0-1.06,0-2.12,0-3.18,0-2.06.13-4.12.21-6.18.2-5.59.35-11.2.74-16.79,0-.24,0-.49.06-.74l-.76-.11s0,0,0,.11a2.86,2.86,0,0,0,0,.42c0,.43.05.85.07,1.27l.21,4.2c.17,3.54.32,7.08.48,10.61.12,2.6.24,5.2.38,7.8a4,4,0,0,0,.28,1.79,2.4,2.4,0,0,0,1.4.9,6.44,6.44,0,0,0,4.16-.06A6.22,6.22,0,0,0,299.62,82a6.67,6.67,0,0,0,.45-.72,3.57,3.57,0,0,1,.43-.85c.28-.29.6-.1.94-.17a1.06,1.06,0,0,0,.66-.46,15.32,15.32,0,0,0,.81-1.68,5.87,5.87,0,0,1,1.42-1.86c1.39-1.13,2.21.59,2.46,1.77.37,1.78.27,4,1.7,5.4a4.8,4.8,0,0,0,3.49,1,4,4,0,0,0,1.75-.43,4.17,4.17,0,0,1,2.4-.51,3.6,3.6,0,0,1,2.07.53c.44.38.74.72,1.39.55a14.56,14.56,0,0,1,1.86-.64,3.63,3.63,0,0,1,1.23,0c.41.07.79.26,1.2.33,1.33.22,1.27-1.35,2-2.06a2.19,2.19,0,0,1,2-.88,3.4,3.4,0,0,1,1.67,1.53c.28.4.57,1,1.05,1.14.63.25,1.25-.08,1.73.54s1.14.79,1.3-.09a24.73,24.73,0,0,0,.26-2.73c.1-1.49.18-3,.26-4.48.31-6.09.4-12.21.83-18.3a3.05,3.05,0,0,1,.05-.52l-.72-.16a50.12,50.12,0,0,1,.55,6.47c.21,3.44.41,6.88.67,10.32.12,1.7.29,3.4.45,5.09s.2,4,1.77,5.09a2.27,2.27,0,0,0,2,.32,1.66,1.66,0,0,0,.76-.54c.17-.21.26-.43.52-.55a1.16,1.16,0,0,1,.93.06c.71.28,1.5.79,2.24.3a.93.93,0,0,0,.43-.77c0-.26-.06-.59.25-.69a4.42,4.42,0,0,1,.63,0c1-.12.58-1.13,1-1.75s1.37-.88,1.9-1.48a4.91,4.91,0,0,0,.62-1.12c.34-.67,1.08-1,1.65-.35a4.82,4.82,0,0,1,.63,1.87c.15.66.3,1.32.46,2,.07.29.46.34.39,0Z" style="fill:#FF6060"></path><path d="M348.62,91.56H229.8a4.24,4.24,0,0,1-4.24-4.24V56.47a4.24,4.24,0,0,1,4.24-4.24H348.62a4.24,4.24,0,0,1,4.24,4.24V87.32A4.24,4.24,0,0,1,348.62,91.56ZM229.8,53.16a3.31,3.31,0,0,0-3.3,3.31V87.32a3.31,3.31,0,0,0,3.3,3.31H348.62a3.31,3.31,0,0,0,3.3-3.31V56.47a3.31,3.31,0,0,0-3.3-3.31Z" style="fill:#455a64"></path><polygon points="244.37 138.48 243.37 138.48 243.37 126.27 288.9 90.7 289.52 91.49 244.37 126.76 244.37 138.48" style="fill:#455a64"></polygon><circle cx="243.87" cy="138.48" r="2.15" style="fill:#455a64"></circle></g></g></svg>